<!-- Generated by IcoMoon.io -->
<svg version="1.1" xmlns="http://www.w3.org/2000/svg" width="32" height="32" viewBox="0 0 32 32">
<title>activity</title>
<path d="M12.915 2.82c0.807-0.136 1.615 0.543 1.615 1.359 0 0.679-0.404 1.223-1.077 1.359-1.211 0.272-2.288 0.679-3.364 1.359-0.538 0.408-1.211 0.272-1.615-0.136-0.673-0.679-0.538-1.63 0.269-2.174 1.211-0.815 2.692-1.359 4.172-1.766z"></path>
<path d="M4.437 8.934c0.538-0.815 1.48-0.951 2.153-0.272 0.404 0.408 0.538 1.087 0.135 1.766-0.538 0.951-1.077 2.174-1.346 3.397-0.135 0.543-0.673 0.951-1.346 0.951-0.942 0-1.48-0.815-1.346-1.63 0.404-1.494 0.942-2.989 1.75-4.212z"></path>
<path d="M2.687 19.123c-0.135-0.815 0.538-1.63 1.346-1.63 0.673 0 1.211 0.408 1.346 1.087 0.269 1.223 0.673 2.31 1.346 3.397 0.404 0.408 0.269 1.223-0.135 1.63-0.673 0.543-1.75 0.408-2.153-0.272-0.807-1.223-1.346-2.717-1.75-4.212z"></path>
<path d="M12.915 29.313c-1.48-0.408-2.961-0.951-4.172-1.766-0.807-0.408-0.942-1.495-0.135-2.038 0.404-0.543 1.077-0.543 1.615-0.272 0.942 0.543 2.153 1.087 3.364 1.359 0.538 0.136 0.942 0.679 0.942 1.359 0 0.815-0.807 1.494-1.615 1.359z"></path>
<path d="M18.971 29.313c5.921-1.359 10.362-6.793 10.362-13.178s-4.441-11.82-10.362-13.45c-0.807-0.136-1.615 0.543-1.615 1.359 0 0.679 0.538 1.223 1.077 1.359 4.845 1.087 8.344 5.434 8.344 10.597s-3.499 9.51-8.344 10.597c-0.673 0.136-1.077 0.679-1.077 1.359 0 0.951 0.807 1.494 1.615 1.359z"></path>
<path d="M15.733 10.667c-0.667 0-1.067 0.4-1.067 1.067v4.933c0 0.533 0.267 0.933 0.667 1.2l4.133 2.533c0.533 0.267 1.067 0.133 1.333-0.4s0.133-1.067-0.4-1.333l-3.867-2.267v-4.667c0-0.55-0.267-1.067-0.8-1.067z"></path>
</svg>
