<!-- Generated by IcoMoon.io -->
<svg version="1.1" xmlns="http://www.w3.org/2000/svg" width="32" height="32" viewBox="0 0 32 32">
<title>add-person</title>
<path d="M20 16c2.933 0 5.333-2.4 5.333-5.333s-2.4-5.333-5.333-5.333c-2.933 0-5.333 2.4-5.333 5.333s2.4 5.333 5.333 5.333zM8 13.333v-2.667c0-0.8-0.533-1.333-1.333-1.333s-1.333 0.533-1.333 1.333v2.667h-2.667c-0.667 0-1.333 0.533-1.333 1.333s0.667 1.333 1.333 1.333h2.667v2.667c0 0.8 0.533 1.333 1.333 1.333s1.333-0.533 1.333-1.333v-2.667h2.667c0.8 0 1.333-0.533 1.333-1.333s-0.533-1.333-1.333-1.333h-2.667zM20 18.667c-3.6 0-10.667 1.733-10.667 5.333v1.333c0 0.667 0.533 1.333 1.333 1.333h18.667c0.667 0 1.333-0.667 1.333-1.333v-1.333c0-3.6-7.067-5.333-10.667-5.333z"></path>
</svg>
