<!-- Generated by IcoMoon.io -->
<svg version="1.1" xmlns="http://www.w3.org/2000/svg" width="32" height="32" viewBox="0 0 32 32">
<title>add</title>
<path d="M16 2.667c-7.333 0-13.333 6-13.333 13.333s6 13.333 13.333 13.333c7.333 0 13.333-6 13.333-13.333s-6-13.333-13.333-13.333zM21.333 17.333h-4v4c0 0.667-0.533 1.333-1.333 1.333s-1.333-0.667-1.333-1.333v-4h-4c-0.8 0-1.333-0.533-1.333-1.333s0.533-1.333 1.333-1.333h4v-4c0-0.8 0.533-1.333 1.333-1.333s1.333 0.533 1.333 1.333v4h4c0.667 0 1.333 0.533 1.333 1.333s-0.667 1.333-1.333 1.333z"></path>
</svg>
