<!-- Generated by IcoMoon.io -->
<svg version="1.1" xmlns="http://www.w3.org/2000/svg" width="32" height="32" viewBox="0 0 32 32">
<title>block</title>
<path d="M16 2.667c-7.333 0-13.333 6-13.333 13.333s6 13.333 13.333 13.333c7.333 0 13.333-6 13.333-13.333s-6-13.333-13.333-13.333zM16 26.667c-5.867 0-10.667-4.8-10.667-10.667 0-2.533 0.8-4.8 2.267-6.533l14.933 14.933c-1.733 1.467-4 2.267-6.533 2.267zM24.4 22.533l-14.933-14.933c1.733-1.467 4-2.267 6.533-2.267 5.867 0 10.667 4.8 10.667 10.667 0 2.533-0.8 4.8-2.267 6.533z"></path>
</svg>
