<!-- Generated by IcoMoon.io -->
<svg version="1.1" xmlns="http://www.w3.org/2000/svg" width="32" height="32" viewBox="0 0 32 32">
<title>cancel</title>
<path d="M16 2.667c-7.333 0-13.333 6-13.333 13.333s6 13.333 13.333 13.333c7.333 0 13.333-6 13.333-13.333s-6-13.333-13.333-13.333zM21.733 21.733c-0.533 0.533-1.333 0.533-1.867 0l-3.867-3.867-3.867 3.867c-0.533 0.533-1.333 0.533-1.867 0s-0.533-1.333 0-1.867l3.867-3.867-3.867-3.867c-0.533-0.533-0.533-1.333 0-1.867s1.333-0.533 1.867 0l3.867 3.867 3.867-3.867c0.533-0.533 1.333-0.533 1.867 0s0.533 1.333 0 1.867l-3.867 3.867 3.867 3.867c0.533 0.533 0.533 1.333 0 1.867z"></path>
</svg>
