<!-- Generated by IcoMoon.io -->
<svg version="1.1" xmlns="http://www.w3.org/2000/svg" width="32" height="32" viewBox="0 0 32 32">
<title>chart-tree</title>
<path d="M22.667 14.667h4c1.467 0 2.667-1.2 2.667-2.667v-5.333c0-1.467-1.2-2.667-2.667-2.667h-4c-1.467 0-2.667 1.2-2.667 2.667v1.333h-8v-1.333c0-1.467-1.2-2.667-2.667-2.667h-4c-1.467 0-2.667 1.2-2.667 2.667v5.333c0 1.467 1.2 2.667 2.667 2.667h4c1.467 0 2.667-1.2 2.667-2.667v-1.333h2.667v9.333c0 2.133 1.733 4 4 4h1.333v1.333c0 1.467 1.2 2.667 2.667 2.667h4c1.467 0 2.667-1.2 2.667-2.667v-5.333c0-1.467-1.2-2.667-2.667-2.667h-4c-1.467 0-2.667 1.2-2.667 2.667v1.333h-1.333c-0.667 0-1.333-0.533-1.333-1.333v-9.333h2.667v1.333c0 1.467 1.2 2.667 2.667 2.667z"></path>
</svg>
