<!-- Generated by IcoMoon.io -->
<svg version="1.1" xmlns="http://www.w3.org/2000/svg" width="32" height="32" viewBox="0 0 32 32">
<title>chart-sankey</title>
<path d="M19.225 6.667c-1.28 0-2.445 0.74-2.988 1.899-0.982 2.096-3.088 4.767-5.402 4.767h-5.502c-0.736 0-1.333-0.597-1.333-1.333s0.597-1.333 1.333-1.333h5.502c1.28 0 2.445-2.074 2.988-3.233 0.982-2.096 3.088-3.434 5.402-3.434h6.108c0.736 0 1.333 0.597 1.333 1.333s-0.597 1.333-1.333 1.333h-6.108zM4 16c0-0.736 0.597-1.333 1.333-1.333h20c0.736 0 1.333 0.597 1.333 1.333s-0.597 1.333-1.333 1.333h-20c-0.736 0-1.333-0.597-1.333-1.333zM4 20c0-0.736 0.597-1.333 1.333-1.333h6.108c2.314 0 4.42 2.672 5.402 4.767 0.543 1.159 1.708 1.899 2.988 1.899h5.502c0.736 0 1.333 0.597 1.333 1.333s-0.597 1.333-1.333 1.333h-5.502c-2.314 0-4.42-1.339-5.402-3.434-0.543-1.159-1.708-3.233-2.988-3.233h-6.108c-0.736 0-1.333-0.597-1.333-1.333z"></path>
</svg>
