<!-- Generated by IcoMoon.io -->
<svg version="1.1" xmlns="http://www.w3.org/2000/svg" width="32" height="32" viewBox="0 0 32 32">
<title>chart</title>
<path d="M10.667 22.667c-0.8 0-1.333-0.667-1.333-1.333v-6.667c0-0.8 0.533-1.333 1.333-1.333s1.333 0.533 1.333 1.333v6.667c0 0.667-0.533 1.333-1.333 1.333zM16 22.667c-0.8 0-1.333-0.667-1.333-1.333v-10.667c0-0.8 0.533-1.333 1.333-1.333s1.333 0.533 1.333 1.333v10.667c0 0.667-0.533 1.333-1.333 1.333zM21.333 22.667c-0.8 0-1.333-0.667-1.333-1.333v-2.667c0-0.8 0.533-1.333 1.333-1.333 0.667 0 1.333 0.533 1.333 1.333v2.667c0 0.667-0.667 1.333-1.333 1.333zM24 25.333h-16c-0.8 0-1.333-0.667-1.333-1.333v-16c0-0.8 0.533-1.333 1.333-1.333h16c0.667 0 1.333 0.533 1.333 1.333v16c0 0.667-0.667 1.333-1.333 1.333zM25.333 4h-18.667c-1.467 0-2.667 1.2-2.667 2.667v18.667c0 1.467 1.2 2.667 2.667 2.667h18.667c1.467 0 2.667-1.2 2.667-2.667v-18.667c0-1.467-1.2-2.667-2.667-2.667z"></path>
</svg>
