<!-- Generated by IcoMoon.io -->
<svg version="1.1" xmlns="http://www.w3.org/2000/svg" width="32" height="32" viewBox="0 0 32 32">
<title>chart-donut</title>
<path d="M14.902 5.241v21.52c0 0.734-0.727 1.345-1.454 1.223-5.451-1.223-9.448-6.114-9.448-11.983s3.997-10.76 9.448-11.983c0.727-0.122 1.454 0.367 1.454 1.223zM17.325 5.241v8.315c0 0.734 0.485 1.223 1.211 1.223h8.237c0.727 0 1.332-0.734 1.211-1.467-1.090-4.646-4.603-8.315-9.206-9.293-0.727-0.122-1.454 0.367-1.454 1.223zM17.325 18.447v8.315c0 0.734 0.727 1.345 1.454 1.223 4.603-1.101 8.116-4.647 9.206-9.293 0.121-0.734-0.485-1.467-1.211-1.467h-8.237c-0.606 0-1.211 0.611-1.211 1.223z"></path>
</svg>
