<!-- Generated by IcoMoon.io -->
<svg version="1.1" xmlns="http://www.w3.org/2000/svg" width="32" height="32" viewBox="0 0 32 32">
<title>chart-bubble</title>
<path d="M26.667 11.733c0 3.535-2.865 6.4-6.4 6.4s-6.4-2.865-6.4-6.4c0-3.535 2.865-6.4 6.4-6.4s6.4 2.865 6.4 6.4z"></path>
<path d="M9.6 23.467c2.356 0 4.267-1.91 4.267-4.267s-1.91-4.267-4.267-4.267c-2.356 0-4.267 1.91-4.267 4.267s1.91 4.267 4.267 4.267z"></path>
<path d="M19.733 26.667c1.473 0 2.667-1.194 2.667-2.667s-1.194-2.667-2.667-2.667c-1.473 0-2.667 1.194-2.667 2.667s1.194 2.667 2.667 2.667z"></path>
</svg>
