<!-- Generated by IcoMoon.io -->
<svg version="1.1" xmlns="http://www.w3.org/2000/svg" width="32" height="32" viewBox="0 0 32 32">
<title>chart-map</title>
<path d="M19.467 6.667l-6.667-2.4c-0.533-0.267-1.2-0.267-1.733 0l-5.333 1.733c-1.067 0.4-1.733 1.467-1.733 2.667v15.867c0 1.867 1.867 3.2 3.6 2.533l4-1.733c0.267-0.133 0.667-0.133 0.933 0l6.667 2.4c0.533 0.133 1.2 0.133 1.733 0l5.333-1.733c1.067-0.4 1.867-1.333 1.867-2.533v-15.867c0-1.867-1.867-3.2-3.6-2.533l-4.133 1.6c-0.267 0-0.533 0.133-0.933 0zM20 25.2l-8-2.8v-15.6l8 2.8v15.6z"></path>
</svg>
