<!-- Generated by IcoMoon.io -->
<svg version="1.1" xmlns="http://www.w3.org/2000/svg" width="32" height="32" viewBox="0 0 32 32">
<title>chart-bar</title>
<path d="M8.533 12.267h0.267c1.067 0 1.867 0.8 1.867 1.867v9.333c0 1.067-0.8 1.867-1.867 1.867h-0.267c-1.067 0-1.867-0.8-1.867-1.867v-9.333c0-1.067 0.8-1.867 1.867-1.867zM16 6.667c1.067 0 1.867 0.8 1.867 1.867v14.933c0 1.067-0.8 1.867-1.867 1.867s-1.867-0.8-1.867-1.867v-14.933c0-1.067 0.8-1.867 1.867-1.867zM23.467 17.333c1.067 0 1.867 0.8 1.867 1.867v4.267c0 1.067-0.8 1.867-1.867 1.867s-1.867-0.8-1.867-1.867v-4.267c0-1.067 0.8-1.867 1.867-1.867z"></path>
</svg>
