<!-- Generated by IcoMoon.io -->
<svg version="1.1" xmlns="http://www.w3.org/2000/svg" width="32" height="32" viewBox="0 0 32 32">
<title>close</title>
<path d="M24.4 7.6c-0.533-0.533-1.333-0.533-1.867 0l-6.533 6.533-6.533-6.533c-0.533-0.533-1.333-0.533-1.867 0s-0.533 1.333 0 1.867l6.533 6.533-6.533 6.533c-0.533 0.533-0.533 1.333 0 1.867s1.333 0.533 1.867 0l6.533-6.533 6.533 6.533c0.533 0.533 1.333 0.533 1.867 0s0.533-1.333 0-1.867l-6.533-6.533 6.533-6.533c0.533-0.533 0.533-1.333 0-1.867z"></path>
</svg>
