<!-- Generated by IcoMoon.io -->
<svg version="1.1" xmlns="http://www.w3.org/2000/svg" width="32" height="32" viewBox="0 0 32 32">
<title>datepicker</title>
<path d="M25.333 5.333h-1.333v-1.333c0-0.667-0.667-1.333-1.333-1.333s-1.333 0.667-1.333 1.333v1.333h-10.667v-1.333c0-0.667-0.533-1.333-1.333-1.333s-1.333 0.667-1.333 1.333v1.333h-1.333c-1.467 0-2.667 1.2-2.667 2.667v18.667c0 1.467 1.2 2.667 2.667 2.667h18.667c1.467 0 2.667-1.2 2.667-2.667v-18.667c0-1.467-1.2-2.667-2.667-2.667zM25.333 25.333c0 0.667-0.667 1.333-1.333 1.333h-16c-0.8 0-1.333-0.667-1.333-1.333v-13.333h18.667v13.333zM9.333 14.667h2.667v2.667h-2.667v-2.667zM14.667 14.667h2.667v2.667h-2.667v-2.667zM20 14.667h2.667v2.667h-2.667v-2.667z"></path>
</svg>
