<!-- Generated by IcoMoon.io -->
<svg version="1.1" xmlns="http://www.w3.org/2000/svg" width="32" height="32" viewBox="0 0 32 32">
<title>delete</title>
<path d="M8 25.333c0 1.467 1.2 2.667 2.667 2.667h10.667c1.467 0 2.667-1.2 2.667-2.667v-13.333c0-1.467-1.2-2.667-2.667-2.667h-10.667c-1.467 0-2.667 1.2-2.667 2.667v13.333zM24 5.333h-3.333l-0.933-0.933c-0.267-0.267-0.533-0.4-0.933-0.4h-5.6c-0.4 0-0.667 0.133-0.933 0.4l-0.933 0.933h-3.333c-0.8 0-1.333 0.533-1.333 1.333s0.533 1.333 1.333 1.333h16c0.667 0 1.333-0.533 1.333-1.333s-0.667-1.333-1.333-1.333z"></path>
</svg>
