<!-- Generated by IcoMoon.io -->
<svg version="1.1" xmlns="http://www.w3.org/2000/svg" width="32" height="32" viewBox="0 0 32 32">
<title>download</title>
<path d="M22.133 13.333h-2.133v-6.667c0-0.667-0.533-1.333-1.333-1.333h-5.333c-0.8 0-1.333 0.667-1.333 1.333v6.667h-2.133c-1.2 0-1.733 1.467-0.933 2.267l6.133 6.133c0.533 0.533 1.333 0.533 1.867 0l6.133-6.133c0.8-0.8 0.267-2.267-0.933-2.267zM6.667 26.667c0 0.667 0.533 1.333 1.333 1.333h16c0.667 0 1.333-0.667 1.333-1.333s-0.667-1.333-1.333-1.333h-16c-0.8 0-1.333 0.667-1.333 1.333z"></path>
</svg>
