<!-- Generated by IcoMoon.io -->
<svg version="1.1" xmlns="http://www.w3.org/2000/svg" width="32" height="32" viewBox="0 0 32 32">
<title>email</title>
<path d="M26.667 5.333h-21.333c-1.467 0-2.667 1.2-2.667 2.667v16c0 1.467 1.2 2.667 2.667 2.667h21.333c1.467 0 2.667-1.2 2.667-2.667v-16c0-1.467-1.2-2.667-2.667-2.667zM26.133 10.933l-9.467 5.867c-0.4 0.267-0.933 0.267-1.467 0l-9.333-5.867c-0.267-0.133-0.533-0.533-0.533-0.933 0-0.933 0.933-1.467 1.733-0.933l8.933 5.6 8.933-5.6c0.8-0.4 1.733 0.133 1.733 0.933 0 0.4-0.133 0.8-0.533 0.933z"></path>
</svg>
