<!-- Generated by IcoMoon.io -->
<svg version="1.1" xmlns="http://www.w3.org/2000/svg" width="32" height="32" viewBox="0 0 32 32">
<title>format-bold</title>
<path d="M20.8 15.733c1.333-0.933 2.133-2.4 2.133-3.733 0-3.067-2.4-5.333-5.333-5.333h-6.933c-0.8 0-1.333 0.533-1.333 1.333v16c0 0.667 0.533 1.333 1.333 1.333h7.733c2.8 0 5.333-2.267 5.333-5.067 0-2-1.2-3.733-2.933-4.533zM13.333 10h4c1.067 0 2 0.933 2 2s-0.933 2-2 2h-4v-4zM18 22h-4.667v-4h4.667c1.067 0 2 0.933 2 2s-0.933 2-2 2z"></path>
</svg>
