<!-- Generated by IcoMoon.io -->
<svg version="1.1" xmlns="http://www.w3.org/2000/svg" width="32" height="32" viewBox="0 0 32 32">
<title>format-underline</title>
<path d="M17.067 22.667c4-0.533 6.933-4.133 6.933-8.267v-8.8c0-0.8-0.8-1.6-1.6-1.6s-1.6 0.8-1.6 1.6v8.8c0 2.267-1.467 4.267-3.733 4.667-2.933 0.667-5.6-1.6-5.6-4.533v-8.933c-0.133-0.8-0.933-1.6-1.867-1.6s-1.6 0.8-1.6 1.6v9.067c0 4.8 4.133 8.533 9.067 8zM6.667 26.667c0 0.667 0.533 1.333 1.333 1.333h16c0.667 0 1.333-0.667 1.333-1.333s-0.667-1.333-1.333-1.333h-16c-0.8 0-1.333 0.667-1.333 1.333z"></path>
</svg>
