<!-- Generated by IcoMoon.io -->
<svg version="1.1" xmlns="http://www.w3.org/2000/svg" width="32" height="32" viewBox="0 0 32 32">
<title>format-text-underline-color</title>
<path d="M2.667 26.667h26.667c1.467 0 2.667 1.2 2.667 2.667s-1.2 2.667-2.667 2.667h-26.667c-1.467 0-2.667-1.2-2.667-2.667s1.2-2.667 2.667-2.667z"></path>
<path d="M14.133 5.2l-6 15.6c-0.4 0.933 0.267 1.867 1.2 1.867 0.533 0 1.067-0.4 1.333-0.933l1.2-3.067h8.267l1.2 3.067c0.133 0.533 0.667 0.933 1.333 0.933 0.933 0 1.6-0.933 1.333-1.867l-6.133-15.6c-0.4-0.667-1.067-1.2-1.867-1.2s-1.467 0.533-1.867 1.2zM12.8 16l3.2-8.4 3.2 8.4h-6.4z"></path>
</svg>
