<!-- Generated by IcoMoon.io -->
<svg version="1.1" xmlns="http://www.w3.org/2000/svg" width="32" height="32" viewBox="0 0 32 32">
<title>format-align-right</title>
<path d="M5.333 28h21.333c0.667 0 1.333-0.667 1.333-1.333s-0.667-1.333-1.333-1.333h-21.333c-0.667 0-1.333 0.667-1.333 1.333s0.667 1.333 1.333 1.333zM13.333 22.667h13.333c0.667 0 1.333-0.667 1.333-1.333 0-0.8-0.667-1.333-1.333-1.333h-13.333c-0.8 0-1.333 0.533-1.333 1.333 0 0.667 0.533 1.333 1.333 1.333zM5.333 17.333h21.333c0.667 0 1.333-0.533 1.333-1.333s-0.667-1.333-1.333-1.333h-21.333c-0.667 0-1.333 0.533-1.333 1.333s0.667 1.333 1.333 1.333zM13.333 12h13.333c0.667 0 1.333-0.533 1.333-1.333s-0.667-1.333-1.333-1.333h-13.333c-0.8 0-1.333 0.533-1.333 1.333s0.533 1.333 1.333 1.333zM4 5.333c0 0.8 0.667 1.333 1.333 1.333h21.333c0.667 0 1.333-0.533 1.333-1.333 0-0.667-0.667-1.333-1.333-1.333h-21.333c-0.667 0-1.333 0.667-1.333 1.333z"></path>
</svg>
