<!-- Generated by IcoMoon.io -->
<svg version="1.1" xmlns="http://www.w3.org/2000/svg" width="32" height="32" viewBox="0 0 32 32">
<title>frame</title>
<path d="M8 18.667c-0.8 0-1.333 0.533-1.333 1.333v4c0 0.667 0.533 1.333 1.333 1.333h4c0.8 0 1.333-0.667 1.333-1.333s-0.533-1.333-1.333-1.333h-2.667v-2.667c0-0.8-0.533-1.333-1.333-1.333zM8 13.333c0.8 0 1.333-0.533 1.333-1.333v-2.667h2.667c0.8 0 1.333-0.533 1.333-1.333s-0.533-1.333-1.333-1.333h-4c-0.8 0-1.333 0.533-1.333 1.333v4c0 0.8 0.533 1.333 1.333 1.333zM22.667 22.667h-2.667c-0.8 0-1.333 0.667-1.333 1.333s0.533 1.333 1.333 1.333h4c0.667 0 1.333-0.667 1.333-1.333v-4c0-0.8-0.667-1.333-1.333-1.333s-1.333 0.533-1.333 1.333v2.667zM18.667 8c0 0.8 0.533 1.333 1.333 1.333h2.667v2.667c0 0.8 0.667 1.333 1.333 1.333s1.333-0.533 1.333-1.333v-4c0-0.8-0.667-1.333-1.333-1.333h-4c-0.8 0-1.333 0.533-1.333 1.333z"></path>
</svg>
