<!-- Generated by IcoMoon.io -->
<svg version="1.1" xmlns="http://www.w3.org/2000/svg" width="32" height="32" viewBox="0 0 32 32">
<title>go-to</title>
<path d="M24 25.333h-16c-0.8 0-1.333-0.667-1.333-1.333v-16c0-0.8 0.533-1.333 1.333-1.333h6.667c0.8 0 1.333-0.533 1.333-1.333 0-0.667-0.533-1.333-1.333-1.333h-8c-1.467 0-2.667 1.2-2.667 2.667v18.667c0 1.467 1.2 2.667 2.667 2.667h18.667c1.467 0 2.667-1.2 2.667-2.667v-8c0-0.8-0.667-1.333-1.333-1.333s-1.333 0.533-1.333 1.333v6.667c0 0.667-0.667 1.333-1.333 1.333zM18.667 5.333c0 0.8 0.533 1.333 1.333 1.333h3.467l-12.133 12.133c-0.533 0.533-0.533 1.333 0 1.867s1.333 0.533 1.867 0l12.133-12.133v3.467c0 0.8 0.667 1.333 1.333 1.333s1.333-0.533 1.333-1.333v-8h-8c-0.8 0-1.333 0.667-1.333 1.333z"></path>
</svg>
