<!-- Generated by IcoMoon.io -->
<svg version="1.1" xmlns="http://www.w3.org/2000/svg" width="32" height="32" viewBox="0 0 32 32">
<title>heart-empty</title>
<path d="M26.267 5.333c-3.6-2.4-7.867-1.333-10.267 1.467-2.4-2.8-6.667-3.867-10.267-1.467-1.867 1.333-2.933 3.467-3.067 5.733-0.133 5.2 4.4 9.333 11.467 15.733l0.133 0.133c1.067 0.933 2.533 0.933 3.6 0l0.133-0.133c7.067-6.4 11.6-10.533 11.467-15.733-0.267-2.267-1.333-4.4-3.2-5.733zM16.134 24.667l-0.133 0.133-0.133-0.133c-6.4-5.733-10.533-9.467-10.533-13.333 0-2.667 2-4.667 4.667-4.667 2 0 4 1.333 4.8 3.2h2.533c0.667-1.867 2.667-3.2 4.667-3.2 2.667 0 4.667 2 4.667 4.667 0 3.867-4.133 7.6-10.533 13.333z"></path>
</svg>
