<!-- Generated by IcoMoon.io -->
<svg version="1.1" xmlns="http://www.w3.org/2000/svg" width="32" height="32" viewBox="0 0 32 32">
<title>help</title>
<path d="M16 2.667c-7.333 0-13.333 6-13.333 13.333s6 13.333 13.333 13.333c7.333 0 13.333-6 13.333-13.333s-6-13.333-13.333-13.333zM17.333 25.333h-2.667v-2.667h2.667v2.667zM20.133 14.933l-1.2 1.2c-0.667 0.667-1.2 1.333-1.333 2.267-0.133 0.533-0.267 0.933-0.267 1.6h-2.667v-0.667c0-0.667 0.133-1.2 0.267-1.733 0.267-0.8 0.667-1.467 1.2-2l1.6-1.733c0.667-0.533 0.933-1.467 0.8-2.4s-0.933-1.733-1.867-2c-1.467-0.4-2.8 0.4-3.333 1.733 0 0.4-0.4 0.8-0.933 0.8h-0.4c-0.8 0-1.333-0.8-1.067-1.467 0.533-2 2.267-3.467 4.267-3.733s4 0.8 5.2 2.4c1.467 2.133 1.067 4.4-0.267 5.733z"></path>
</svg>
