<!-- Generated by IcoMoon.io -->
<svg version="1.1" xmlns="http://www.w3.org/2000/svg" width="32" height="32" viewBox="0 0 32 32">
<title>journal</title>
<path d="M23.333 6c-2.533 0-5.467 0.533-7.333 2-1.867-1.467-4.8-2-7.333-2-1.867 0-4 0.267-5.733 1.067-0.933 0.4-1.6 1.333-1.6 2.4v15.067c0 1.733 1.6 3.067 3.333 2.533 1.333-0.267 2.667-0.533 4-0.533 2.133 0 4.267 0.4 6.133 1.2 0.8 0.4 1.733 0.4 2.533 0 1.733-0.933 4-1.2 6.133-1.2 1.333 0 2.667 0.133 4 0.533 1.733 0.4 3.333-0.8 3.333-2.533v-15.067c0-1.067-0.667-2-1.6-2.4-1.867-0.8-3.867-1.067-5.867-1.067zM28 22.933c0 0.8-0.8 1.467-1.6 1.333-1.067-0.133-2-0.267-3.067-0.267-2.267 0-5.467 0.8-7.333 2v-15.333c1.867-1.067 5.067-2 7.333-2 1.2 0 2.4 0.133 3.6 0.4 0.667 0.133 1.067 0.667 1.067 1.333v12.533z"></path>
<path d="M18.667 14.667c-0.4 0-0.8-0.267-0.933-0.667-0.133-0.533 0.133-1.067 0.667-1.2 2-0.667 4.667-0.933 7.2-0.533 0.533 0.133 0.933 0.533 0.933 1.067s-0.533 0.933-1.067 0.933c-2.133-0.267-4.533 0-6.267 0.533-0.4-0.133-0.4-0.133-0.533-0.133z"></path>
<path d="M18.667 18.267c-0.4 0-0.8-0.267-0.933-0.667-0.133-0.533 0.133-1.067 0.667-1.2 2-0.667 4.667-0.933 7.2-0.533 0.533 0.133 0.933 0.533 0.933 1.067s-0.533 0.933-1.067 0.933c-2.133-0.267-4.533 0-6.267 0.533-0.4-0.133-0.4-0.133-0.533-0.133z"></path>
<path d="M18.667 21.733c-0.4 0-0.8-0.267-0.933-0.667-0.133-0.533 0.133-1.067 0.667-1.2 2-0.667 4.667-0.933 7.2-0.533 0.533 0.133 0.933 0.533 0.933 1.067s-0.533 0.933-1.067 0.933c-2.133-0.267-4.533 0-6.267 0.533-0.4-0.133-0.4-0.133-0.533-0.133z"></path>
</svg>
