<!-- Generated by IcoMoon.io -->
<svg version="1.1" xmlns="http://www.w3.org/2000/svg" width="32" height="32" viewBox="0 0 32 32">
<title>log-out</title>
<path d="M16.003 4c-0.8 0-1.333 0.67-1.333 1.34v10.722c0 0.804 0.533 1.34 1.333 1.34s1.333-0.536 1.333-1.34v-10.722c0-0.67-0.533-1.34-1.333-1.34zM22.803 7.887c-0.533 0.536-0.533 1.34 0 1.876 1.467 1.608 2.4 3.753 2.533 6.165 0.133 5.093-4.133 9.516-9.2 9.65-5.2-0.134-9.467-4.289-9.467-9.516 0-2.412 0.933-4.691 2.533-6.433 0.533-0.536 0.533-1.34 0-1.876s-1.467-0.536-1.867 0c-2 2.144-3.2 4.959-3.333 7.908-0.133 6.567 5.067 12.196 11.6 12.33 6.8 0.268 12.4-5.227 12.4-12.062 0-3.217-1.2-6.031-3.2-8.176-0.533-0.402-1.467-0.402-2 0.134z"></path>
</svg>
