<!-- Generated by IcoMoon.io -->
<svg version="1.1" xmlns="http://www.w3.org/2000/svg" width="32" height="32" viewBox="0 0 32 32">
<title>members</title>
<path d="M22.267 17.467c1.733 1.333 3.067 2.933 3.067 5.2v4h4c0.667 0 1.333-0.667 1.333-1.333v-2.667c0-2.933-4.8-4.667-8.4-5.2z"></path>
<path d="M12 16c2.945 0 5.333-2.388 5.333-5.333s-2.388-5.333-5.333-5.333c-2.946 0-5.333 2.388-5.333 5.333s2.388 5.333 5.333 5.333z"></path>
<path d="M20 16c2.933 0 5.333-2.4 5.333-5.333s-2.4-5.333-5.333-5.333c-0.667 0-1.2 0.133-1.733 0.267 1.067 1.467 1.733 3.2 1.733 5.067s-0.667 3.6-1.733 5.067c0.533 0.133 1.067 0.267 1.733 0.267z"></path>
<path d="M12 17.333c-3.6 0-10.667 1.733-10.667 5.333v2.667c0 0.667 0.667 1.333 1.333 1.333h18.667c0.667 0 1.333-0.667 1.333-1.333v-2.667c0-3.6-7.067-5.333-10.667-5.333z"></path>
</svg>
