<!-- Generated by IcoMoon.io -->
<svg version="1.1" xmlns="http://www.w3.org/2000/svg" width="32" height="32" viewBox="0 0 32 32">
<title>report</title>
<path d="M19.467 3.467c-0.533-0.533-1.2-0.8-1.867-0.8h-9.6c-1.467 0-2.667 1.2-2.667 2.667v21.333c0 1.467 1.2 2.667 2.667 2.667h16c1.467 0 2.667-1.2 2.667-2.667v-14.933c0-0.667-0.267-1.333-0.8-1.867l-6.4-6.4zM20 24h-8c-0.8 0-1.333-0.667-1.333-1.333s0.533-1.333 1.333-1.333h8c0.8 0 1.333 0.667 1.333 1.333s-0.533 1.333-1.333 1.333zM20 18.667h-8c-0.8 0-1.333-0.533-1.333-1.333s0.533-1.333 1.333-1.333h8c0.8 0 1.333 0.533 1.333 1.333s-0.533 1.333-1.333 1.333zM17.333 10.667v-6l7.333 7.333h-6c-0.8 0-1.333-0.533-1.333-1.333z"></path>
</svg>
