<!-- Generated by IcoMoon.io -->
<svg version="1.1" xmlns="http://www.w3.org/2000/svg" width="32" height="32" viewBox="0 0 32 32">
<title>search</title>
<path d="M20.667 18.667h-1.067l-0.4-0.4c1.6-1.867 2.4-4.4 2-7.067-0.667-3.733-3.733-6.667-7.467-7.067-5.6-0.667-10.4 4-9.733 9.733 0.4 3.733 3.467 6.8 7.067 7.467 2.667 0.4 5.2-0.4 7.067-2l0.4 0.4v1.067l5.6 5.6c0.533 0.533 1.467 0.533 2 0s0.533-1.467 0-2l-5.467-5.733zM12.667 18.667c-3.333 0-6-2.667-6-6s2.667-6 6-6c3.333 0 6 2.667 6 6s-2.667 6-6 6z"></path>
</svg>
