<!-- Generated by IcoMoon.io -->
<svg version="1.1" xmlns="http://www.w3.org/2000/svg" width="32" height="32" viewBox="0 0 32 32">
<title>selected</title>
<path d="M25.333 4h-18.667c-1.467 0-2.667 1.2-2.667 2.667v18.667c0 1.467 1.2 2.667 2.667 2.667h18.667c1.467 0 2.667-1.2 2.667-2.667v-18.667c0-1.467-1.2-2.667-2.667-2.667zM14.267 21.733c-0.533 0.533-1.333 0.533-1.867 0l-4.8-4.8c-0.533-0.533-0.533-1.333 0-1.867s1.333-0.533 1.867 0l3.867 3.867 9.2-9.2c0.533-0.533 1.333-0.533 1.867 0s0.533 1.333 0 1.867l-10.133 10.133z"></path>
</svg>
