<!-- Generated by IcoMoon.io -->
<svg version="1.1" xmlns="http://www.w3.org/2000/svg" width="32" height="32" viewBox="0 0 32 32">
<title>settings</title>
<path d="M25.519 17.333c0-0.4 0.133-0.8 0.133-1.333s0-0.933-0.133-1.333l2.8-2.133c0.267-0.133 0.267-0.533 0.133-0.8l-2.667-4.667c-0.133-0.267-0.533-0.4-0.8-0.267l-3.333 1.333c-0.667-0.533-1.467-0.933-2.267-1.333l-0.533-3.6c0.133-0.267-0.267-0.533-0.533-0.533h-5.333c-0.267 0-0.667 0.267-0.667 0.533l-0.533 3.6c-0.8 0.267-1.467 0.8-2.267 1.333l-3.333-1.333c-0.267-0.133-0.533 0-0.8 0.267l-2.667 4.667c-0.133 0.133 0 0.533 0.267 0.8l2.8 2.133c0 0.4-0.133 0.933-0.133 1.333s0 0.933 0.133 1.333l-2.8 2.133c-0.267 0.133-0.267 0.533-0.133 0.8l2.667 4.667c0.133 0.267 0.4 0.4 0.8 0.267l3.333-1.333c0.667 0.533 1.467 0.933 2.267 1.333l0.533 3.467c0 0.267 0.267 0.533 0.667 0.533h5.333c0.267 0 0.667-0.267 0.667-0.533l0.533-3.467c0.8-0.267 1.6-0.8 2.267-1.333l3.333 1.333c0.267 0.133 0.667 0 0.8-0.267l2.667-4.667c0.133-0.267 0.133-0.667-0.133-0.8l-3.067-2.133zM15.652 20.667c-2.533 0-4.667-2.133-4.667-4.667s2.133-4.667 4.667-4.667c2.533 0 4.667 2.133 4.667 4.667s-2.133 4.667-4.667 4.667z"></path>
</svg>
