<!-- Generated by IcoMoon.io -->
<svg version="1.1" xmlns="http://www.w3.org/2000/svg" width="32" height="32" viewBox="0 0 32 32">
<title>subscription</title>
<path d="M26.667 2.667h-21.333c-1.467 0-2.667 1.2-2.667 2.667v14.667c0 1.467 1.2 2.667 2.667 2.667h5.333v6.667l5.333-2.667 5.333 2.667v-6.667h5.333c1.467 0 2.667-1.2 2.667-2.667v-14.667c0-1.467-1.2-2.667-2.667-2.667zM26.667 20h-21.333v-2.667h21.333v2.667zM26.667 13.333h-21.333v-6.667c0-0.8 0.533-1.333 1.333-1.333h18.667c0.667 0 1.333 0.533 1.333 1.333v6.667z"></path>
</svg>
