<!-- Generated by IcoMoon.io -->
<svg version="1.1" xmlns="http://www.w3.org/2000/svg" width="32" height="32" viewBox="0 0 32 32">
<title>swap</title>
<path d="M21.333 22.667v-8c0-0.8-0.533-1.333-1.333-1.333s-1.333 0.533-1.333 1.333v8h-2.4c-0.533 0-0.933 0.667-0.533 1.2l3.733 3.733c0.267 0.267 0.667 0.267 0.933 0l3.733-3.733c0.4-0.4 0.133-1.2-0.533-1.2h-2.267zM11.466 4.4l-3.6 3.733c-0.533 0.4-0.133 1.2 0.4 1.2h2.4v8c0 0.8 0.533 1.333 1.333 1.333s1.333-0.533 1.333-1.333v-8h2.4c0.533 0 0.933-0.667 0.533-1.067l-3.733-3.867c-0.267-0.133-0.8-0.133-1.067 0z"></path>
</svg>
